<svg
  viewBox="0 0 20 20"
  xmlns="http://www.w3.org/2000/svg"
  xmlns:xlink="http://www.w3.org/1999/xlink"
  fill="#c77b36"
>
  <g id="SVGRepo_bgCarrier" stroke-width="0" />
  <g id="SVGRepo_tracerCarrier" stroke-linecap="round" stroke-linejoin="round" />
  <g id="SVGRepo_iconCarrier">
    <title>ins_fill</title>
    <g id="页面-1" stroke-width="0.00024000000000000003" fill="none" fill-rule="evenodd">
      <g id="Brand" transform="translate(-288.000000, -48.000000)" fill-rule="nonzero">
        <g id="ins_fill" transform="translate(288.000000, 48.000000)">
          <!-- 移除透明背景路径，简化图标 -->
          <path
            d="M14,1 C16.7614,1 18,3.23858 18,6 L18,14 C18,16.7614 16.7614,18 14,18 L6,18 C3.23858,18 1,16.7614 1,14 L1,6 C1,3.23858 3.23858,1 6,1 L14,1 Z M10,6 C7.79086,6 6,7.79086 6,10 C6,12.2091 7.79086,14 10,14 C12.2091,14 14,12.2091 14,10 C14,7.79086 12.2091,6 10,6 Z M10,8 C11.1046,8 12,8.8954 12,10 C12,11.1046 11.1046,12 10,12 C8.8954,12 8,11.1046 8,10 C8,8.8954 8.8954,8 10,8 Z M14.5,4.5 C13.9477,4.5 13.5,4.94772 13.5,5.5 C13.5,6.05228 13.9477,6.5 14.5,6.5 C15.0523,6.5 15.5,6.05228 15.5,5.5 C15.5,4.94772 15.0523,4.5 14.5,4.5 Z"
            fill="#c77b36"
          />
        </g>
      </g>
    </g>
  </g>
</svg>