<?xml version="1.0" standalone="no"?>
<!DOCTYPE svg PUBLIC "-//W3C//DTD SVG 20010904//EN"
 "http://www.w3.org/TR/2001/REC-SVG-20010904/DTD/svg10.dtd">
<svg version="1.0" xmlns="http://www.w3.org/2000/svg"
 width="300.000000pt" height="388.000000pt" viewBox="0 0 300.000000 388.000000"
 preserveAspectRatio="xMidYMid meet">
<metadata>
Created by potrace 1.10, written by Peter Selinger 2001-2011
</metadata>
<g transform="translate(0.000000,388.000000) scale(0.100000,-0.100000)"
fill="#000000" stroke="none">
<path d="M1114 3828 c-53 -40 -63 -73 -11 -35 17 13 40 27 50 30 25 9 21 -12
-5 -23 -13 -5 -17 -9 -9 -9 8 -1 23 6 33 16 21 19 24 6 4 -19 -7 -10 -22 -18
-32 -19 -18 0 -18 -1 1 -8 21 -9 65 6 65 22 0 5 12 6 26 3 20 -5 25 -4 22 6
-4 9 5 14 26 15 l31 2 -22 -18 c-18 -15 -20 -20 -8 -25 9 -3 15 1 15 10 0 11
6 14 16 10 8 -3 12 -2 9 4 -11 18 32 10 79 -15 26 -14 45 -21 42 -16 -3 5 3
11 14 14 23 6 39 -12 20 -23 -8 -5 -1 -11 21 -19 39 -13 39 -13 39 0 0 5 -5 7
-12 3 -7 -4 -8 -3 -4 5 4 7 15 11 24 10 61 -6 54 13 -11 34 -29 9 -65 14 -80
11 -17 -3 -26 -1 -23 5 7 11 -66 25 -113 22 -25 -2 -31 0 -25 11 6 10 5 11 -7
1 -18 -15 -112 -9 -117 7 -6 16 -27 12 -58 -12z"/>
<path d="M1032 3824 c-12 -8 -22 -11 -22 -5 0 5 -10 10 -22 9 -42 -1 -83 -22
-117 -60 -19 -21 -43 -38 -53 -38 -10 0 -31 -11 -46 -25 -25 -23 -42 -31 -42
-20 0 2 10 13 22 25 12 11 17 20 11 20 -16 0 -46 -38 -38 -49 7 -12 -67 -91
-85 -91 -7 0 -10 -6 -7 -12 2 -7 11 -11 18 -10 8 2 10 0 6 -5 -5 -4 -12 -8
-15 -8 -4 -1 -27 -21 -52 -45 -25 -25 -41 -42 -36 -38 4 3 15 4 22 1 10 -4 12
0 8 11 -3 9 -2 16 4 16 6 0 12 -6 15 -12 2 -7 8 -1 12 15 6 24 16 32 29 25 2
-2 13 5 24 15 12 11 26 16 33 11 7 -4 10 -3 5 4 -3 6 1 18 10 26 13 14 13 16
0 16 -8 0 -22 -7 -30 -16 -15 -14 -16 -14 -16 0 0 9 7 16 15 16 8 0 15 7 15
15 0 8 7 15 15 15 8 0 15 5 15 10 0 6 11 23 25 38 14 15 25 21 25 14 0 -9 4
-10 13 -2 6 6 49 38 95 71 81 60 116 75 68 30 -14 -13 -22 -29 -20 -36 7 -16
-16 -31 -25 -17 -4 7 -23 -3 -51 -28 -32 -27 -40 -39 -27 -40 9 0 17 4 17 8 0
4 14 16 30 25 17 10 30 15 30 12 0 -3 16 6 36 21 27 21 32 29 21 33 -12 5 -10
10 9 24 23 17 23 17 17 0 -7 -17 -6 -17 20 0 15 9 27 15 27 13 0 -14 -24 -56
-32 -56 -5 0 -29 -14 -54 -31 -24 -16 -49 -27 -54 -24 -6 4 -7 -1 -3 -11 5
-13 3 -16 -10 -11 -9 3 -20 0 -24 -8 -8 -14 -88 -75 -99 -75 -3 0 -2 5 1 10 3
6 1 10 -5 10 -6 0 -9 4 -5 10 3 5 12 7 19 4 14 -5 29 10 32 33 2 9 -3 9 -19 0
-33 -18 -59 -67 -36 -67 5 0 9 -7 9 -15 0 -11 12 -4 36 19 20 19 39 34 43 33
10 -2 53 24 80 50 35 33 77 54 94 47 8 -3 18 0 22 5 3 6 11 8 17 5 7 -4 8 -2
4 4 -4 6 -14 8 -24 5 -16 -6 -16 -5 1 14 9 11 17 27 17 36 0 9 10 23 22 31 21
15 21 16 2 16 -11 0 -30 -7 -42 -16z"/>
<path d="M1378 3746 c-8 -9 -21 -11 -39 -6 -14 4 -33 4 -40 -1 -11 -7 -11 -9
3 -9 9 0 18 -6 20 -12 4 -10 15 -8 46 7 23 11 42 23 42 28 0 12 -18 8 -32 -7z"/>
<path d="M1605 3750 c3 -5 -7 -16 -22 -22 -15 -7 -34 -18 -41 -25 -7 -7 -20
-9 -30 -6 -16 5 -16 5 0 -12 15 -17 17 -16 39 4 13 11 31 21 40 21 18 0 32 15
35 38 1 6 -4 12 -12 12 -9 0 -12 -4 -9 -10z"/>
<path d="M1085 3741 c3 -6 -8 -18 -25 -27 -32 -19 -37 -29 -20 -39 6 -4 9 -1
8 7 -2 7 3 12 10 10 8 -1 11 2 7 8 -4 6 7 10 27 11 18 0 27 3 20 6 -6 2 -10 8
-7 13 3 4 -2 11 -11 14 -8 3 -12 2 -9 -3z"/>
<path d="M1167 3717 c-15 -13 -25 -26 -21 -30 4 -3 14 3 24 15 15 18 21 20 48
10 23 -8 32 -8 32 0 0 6 6 6 15 -2 9 -7 18 -10 22 -6 11 11 -6 19 -37 18 -17
0 -28 4 -25 9 12 18 -31 8 -58 -14z"/>
<path d="M1412 3701 l-32 -28 36 -11 c30 -9 33 -8 23 4 -9 11 -8 14 2 14 12 0
12 2 0 9 -11 7 -9 11 8 20 12 7 27 9 33 5 7 -4 8 -3 4 4 -12 19 -39 13 -74
-17z"/>
<path d="M1635 3719 c-4 -6 -1 -10 6 -8 28 3 38 -1 33 -16 -4 -8 -10 -15 -16
-15 -5 0 -6 4 -3 10 3 6 -1 7 -9 4 -24 -9 -19 -18 13 -31 26 -9 29 -9 24 6 -3
9 6 3 19 -13 16 -19 29 -26 37 -21 10 6 11 3 2 -14 -13 -23 -27 -27 -33 -9 -3
7 -7 6 -11 -5 -4 -11 -1 -17 7 -17 8 0 17 -6 19 -12 4 -9 6 -8 7 2 0 8 13 24
27 34 22 17 26 17 20 3 -3 -9 -2 -19 3 -22 6 -4 10 -1 10 6 0 7 3 9 7 6 3 -4
-2 -16 -12 -27 -10 -11 -16 -20 -14 -21 27 -5 37 -2 58 18 l24 23 -24 0 c-17
0 -20 3 -11 9 10 6 7 12 -12 24 -14 10 -29 17 -35 17 -5 0 -12 8 -16 18 -7 16
-8 15 -15 -3 -7 -18 -8 -18 -15 8 -10 39 -75 72 -90 46z"/>
<path d="M960 3674 c-34 -35 -34 -36 -10 -32 14 1 24 8 23 13 -1 6 8 20 19 33
35 37 6 24 -32 -14z"/>
<path d="M1097 3677 c-27 -21 -27 -23 -8 -24 12 -1 19 2 16 7 -3 6 1 7 9 4 11
-4 16 0 16 15 0 26 1 26 -33 -2z"/>
<path d="M1183 3688 c-4 -8 -20 -23 -35 -35 l-28 -21 26 -17 c18 -12 29 -13
38 -6 7 6 15 8 19 5 3 -3 15 0 28 6 l22 13 -23 12 c-21 11 -26 10 -40 -8 -12
-14 -23 -18 -35 -13 -16 6 -14 10 16 35 19 16 31 32 27 36 -3 3 -10 0 -15 -7z"/>
<path d="M1574 3679 c-6 -11 74 -51 87 -44 15 10 -1 26 -19 21 -21 -7 -47 8
-39 21 3 5 -1 10 -9 10 -8 0 -17 -4 -20 -8z"/>
<path d="M1226 3672 c-3 -5 9 -8 27 -7 45 3 69 -5 63 -21 -7 -17 5 -18 38 -3
24 11 27 29 5 29 -6 0 -7 -4 -4 -10 8 -13 4 -13 -38 5 -40 17 -83 20 -91 7z"/>
<path d="M1469 3678 c-8 -28 -5 -34 17 -30 20 3 22 7 13 18 -10 12 -28 19 -30
12z"/>
<path d="M620 3663 c-8 -3 -26 -15 -40 -28 -14 -12 -43 -27 -65 -33 -33 -10
-143 -90 -124 -92 3 0 19 12 35 26 32 28 93 59 137 68 15 4 25 10 23 15 -11
17 24 34 57 27 21 -4 27 -3 18 3 -11 7 -9 10 10 14 20 4 19 4 -6 5 -16 0 -37
-2 -45 -5z"/>
<path d="M1396 3622 c9 -38 19 -45 34 -27 7 8 9 15 4 15 -5 0 -3 4 4 9 10 6 6
11 -17 19 -30 11 -31 10 -25 -16z"/>
<path d="M1511 3631 c-9 -16 -8 -18 7 -15 9 2 24 0 32 -5 12 -8 10 -14 -10
-33 -38 -37 -82 -89 -78 -93 7 -8 78 67 73 76 -4 5 1 9 9 9 9 0 16 5 16 11 0
5 4 8 9 5 4 -3 7 -17 6 -30 -2 -17 3 -27 15 -31 10 -3 17 -13 16 -21 0 -9 10
-23 24 -32 l24 -17 -24 42 c-13 23 -27 40 -31 38 -4 -3 -10 2 -13 11 -3 8 -2
12 4 9 14 -9 12 9 -2 23 -7 7 -8 12 -3 12 5 0 -1 7 -13 16 -12 8 -22 22 -22
30 0 20 -28 17 -39 -5z"/>
<path d="M910 3620 c-11 -7 -11 -10 -2 -10 7 0 10 -4 7 -10 -3 -5 -13 -10 -21
-10 -9 0 -12 5 -8 12 9 14 -36 -18 -86 -61 -52 -45 -30 -38 26 9 46 38 70 46
44 15 -27 -32 8 -13 45 25 36 37 33 55 -5 30z"/>
<path d="M990 3610 c-14 -11 -30 -20 -36 -20 -15 0 -49 -39 -41 -47 4 -3 7 -1
7 6 0 7 6 11 13 8 7 -3 33 13 57 34 45 40 45 54 0 19z"/>
<path d="M1220 3585 c-40 -31 -58 -40 -67 -33 -7 6 -13 15 -13 20 0 6 7 4 17
-3 14 -12 16 -12 11 1 -7 24 -44 25 -44 1 0 -11 2 -18 4 -16 3 2 13 -6 23 -18
10 -12 18 -19 19 -14 0 4 9 -2 20 -13 12 -12 25 -18 30 -15 6 4 10 1 10 -4 0
-6 7 -11 15 -11 27 0 16 15 -25 33 -38 16 -54 37 -28 37 6 0 22 9 34 21 12 11
39 27 61 34 21 8 33 14 26 15 -6 0 -17 2 -25 4 -7 3 -38 -15 -68 -39z"/>
<path d="M1076 3604 c-4 -9 -13 -14 -22 -10 -16 6 -64 -20 -64 -36 0 -5 10 0
22 12 12 11 29 18 38 15 9 -3 25 4 35 15 10 11 13 20 8 20 -6 0 -14 -7 -17
-16z"/>
<path d="M1355 3600 c-10 -11 -24 -20 -31 -20 -7 0 -21 -11 -32 -25 -11 -13
-22 -21 -26 -18 -3 3 -6 1 -6 -5 0 -7 -7 -9 -17 -5 -14 5 -10 12 22 40 21 18
34 33 29 33 -5 0 -26 -15 -46 -34 l-37 -34 31 -13 c26 -11 32 -10 39 4 5 9 16
14 24 11 8 -4 15 -1 15 6 0 6 -4 8 -10 5 -5 -3 -10 -1 -10 5 0 7 8 9 19 5 19
-6 35 8 36 30 0 6 9 9 20 8 11 -1 14 0 7 3 -6 3 -10 10 -6 15 9 16 -2 10 -21
-11z"/>
<path d="M1634 3588 c11 -15 27 -25 35 -22 8 3 18 0 21 -7 5 -7 10 -8 14 -1 3
5 -10 17 -29 26 -20 10 -33 20 -31 24 3 4 -4 8 -14 8 -17 0 -16 -2 4 -28z"/>
<path d="M1612 3570 c7 -11 16 -20 20 -20 5 0 8 -6 8 -12 0 -7 7 -22 15 -32
14 -19 15 -19 37 0 20 18 21 18 15 1 -4 -11 -3 -16 3 -12 13 8 13 35 1 35 -6
0 -13 -4 -16 -10 -9 -14 -25 -12 -25 3 0 14 -50 67 -63 67 -4 0 -2 -9 5 -20z"/>
<path d="M1835 3554 c-16 -19 -32 -37 -34 -39 -2 -3 -2 -5 2 -5 3 0 15 9 25
20 19 20 19 20 48 -12 15 -18 30 -42 31 -53 6 -38 13 -47 33 -42 18 5 19 4 5
-16 -25 -35 -17 -41 11 -8 28 33 30 27 -31 94 -53 58 -66 78 -60 87 12 20 -1
9 -30 -26z"/>
<path d="M2823 3577 c-19 -8 -38 -35 -31 -43 2 -1 16 9 32 22 32 28 32 36 -1
21z"/>
<path d="M529 3550 c-26 -16 -51 -26 -55 -22 -5 4 -6 3 -2 -2 4 -5 2 -16 -5
-25 -10 -13 -7 -12 13 2 14 9 34 21 45 27 28 13 72 50 60 50 -5 0 -31 -14 -56
-30z"/>
<path d="M1045 3551 c-3 -6 -1 -11 4 -11 6 0 11 -4 11 -9 0 -5 -10 -7 -22 -4
-20 4 -21 3 -5 -7 9 -6 23 -7 31 -3 12 7 12 11 1 26 -8 12 -15 14 -20 8z"/>
<path d="M1366 3538 c-9 -12 -16 -18 -16 -13 0 4 -11 -2 -25 -15 -13 -12 -24
-25 -23 -29 2 -18 -4 -22 -17 -11 -9 8 -15 8 -15 2 0 -6 6 -12 13 -15 6 -2 9
-8 5 -12 -4 -4 -14 -2 -23 5 -13 11 -19 7 -17 -11 1 -4 -8 -15 -18 -24 -16
-15 -22 -16 -35 -5 -9 7 -18 10 -21 7 -3 -3 4 -11 16 -17 18 -9 25 -8 41 6 19
17 20 17 26 -4 6 -25 13 -27 32 -9 11 10 12 8 6 -10 -6 -22 4 -31 18 -17 11
11 -14 46 -29 40 -43 -16 15 53 67 79 16 9 27 20 24 25 -3 5 -1 19 5 30 14 27
5 26 -14 -2z"/>
<path d="M1407 3543 c-20 -5 -19 -34 1 -41 7 -2 12 6 13 20 0 13 3 17 6 11 2
-7 12 -13 20 -13 13 0 13 3 3 15 -7 8 -15 14 -19 14 -3 -1 -14 -3 -24 -6z"/>
<path d="M540 3523 c-43 -28 -80 -66 -74 -75 3 -5 -8 -24 -25 -44 -17 -19 -31
-43 -31 -52 0 -10 -7 -28 -16 -40 -21 -30 -10 -28 20 5 20 22 27 24 40 14 12
-10 22 -8 53 13 21 14 34 26 30 26 -4 0 -19 -7 -32 -16 -23 -15 -25 -15 -25 0
0 10 -4 14 -10 11 -16 -10 2 28 19 42 27 21 32 14 16 -19 -15 -33 -15 -33 2
-9 18 25 25 71 11 71 -4 0 0 13 10 29 9 16 21 27 27 24 5 -4 7 -3 3 2 -4 4 -3
14 3 22 15 17 9 17 -21 -4z"/>
<path d="M1529 3511 c-1 -3 -1 -10 0 -14 1 -5 -4 -7 -11 -5 -7 3 -21 -4 -32
-14 -19 -17 -21 -17 -39 -1 -18 17 -18 17 0 -15 10 -17 21 -32 26 -32 4 0 7
-10 7 -22 0 -17 3 -19 12 -10 8 8 8 15 1 24 -6 7 -10 21 -10 32 0 16 2 16 17
-4 10 -14 20 -18 24 -12 3 5 -1 13 -10 16 -8 3 -12 11 -9 17 5 7 13 5 25 -6
21 -19 32 -53 19 -60 -10 -7 -1 -65 12 -79 6 -6 9 -2 10 10 0 18 1 18 8 -1 5
-11 6 -26 4 -32 -3 -7 0 -13 6 -13 8 0 10 15 6 48 -7 61 -14 82 -26 82 -6 0
-8 4 -5 8 3 5 -2 20 -12 33 -21 30 -27 63 -6 35 14 -20 14 -20 14 0 0 18 -28
31 -31 15z"/>
<path d="M1013 3486 c-13 -6 -23 -14 -23 -18 0 -13 21 -9 37 7 22 23 30 9 8
-15 -10 -11 -13 -20 -7 -20 7 0 12 5 12 10 0 14 53 6 58 -8 2 -7 -2 -12 -9
-12 -7 0 -4 -8 9 -20 26 -24 28 -24 36 -4 3 8 2 12 -4 9 -6 -3 -10 0 -10 8 0
13 -38 55 -46 50 -2 -2 -7 -3 -11 -3 -5 0 -1 5 7 10 9 6 10 10 3 10 -6 0 -17
2 -25 4 -7 2 -23 -2 -35 -8z"/>
<path d="M1140 3478 c-24 -19 -24 -20 -5 -34 26 -19 40 -18 21 2 -9 8 -14 20
-11 24 9 14 31 1 43 -26 7 -13 16 -24 22 -24 15 0 12 17 -5 24 -8 3 -12 12 -9
20 3 8 -2 19 -13 24 -14 8 -24 5 -43 -10z"/>
<path d="M1768 3481 c-8 -11 -18 -18 -21 -14 -9 9 -9 -9 1 -22 10 -14 51 30
42 45 -5 9 -12 6 -22 -9z"/>
<path d="M1703 3480 c-14 -6 -21 -15 -17 -24 7 -19 31 -10 37 15 3 10 4 19 4
18 -1 0 -12 -4 -24 -9z"/>
<path d="M608 3466 c-10 -7 -18 -18 -18 -23 0 -6 -11 -18 -25 -27 -14 -9 -25
-21 -25 -27 0 -13 59 32 59 45 1 5 8 18 18 28 19 21 15 23 -9 4z"/>
<path d="M680 3460 c7 -14 6 -22 -5 -34 -22 -22 -18 -32 4 -12 22 20 24 53 4
61 -10 3 -11 0 -3 -15z"/>
<path d="M790 3464 c0 -11 -9 -25 -20 -32 -21 -13 -27 -32 -10 -32 6 0 10 7
10 15 0 8 5 15 11 15 6 0 17 6 24 14 12 12 12 16 0 26 -12 10 -15 9 -15 -6z"/>
<path d="M940 3473 c-19 -6 -65 -63 -51 -63 5 0 18 11 29 25 11 14 25 25 31
25 6 0 11 5 11 10 0 6 -1 9 -2 9 -2 -1 -10 -3 -18 -6z"/>
<path d="M1582 3455 c6 -14 15 -25 20 -25 4 0 8 -7 8 -15 0 -8 5 -15 10 -15 6
0 10 9 10 20 0 11 -7 20 -16 20 -8 0 -13 4 -9 9 3 6 -4 15 -15 21 -19 10 -19
9 -8 -15z"/>
<path d="M1358 3440 c5 -34 0 -37 -22 -14 -9 8 -16 11 -16 5 0 -5 5 -13 10
-16 6 -4 8 -11 5 -16 -12 -18 11 -9 38 16 27 26 36 42 17 30 -6 -3 -13 1 -16
9 -10 27 -21 18 -16 -14z"/>
<path d="M1430 3443 c0 -7 -5 -13 -11 -13 -16 0 -62 -51 -54 -59 4 -3 16 7 27
22 13 18 23 25 28 17 5 -8 10 -7 18 2 7 9 8 19 2 28 -7 10 -10 11 -10 3z"/>
<path d="M1654 3426 c3 -14 2 -35 -4 -46 -6 -11 -7 -26 -3 -33 4 -6 8 -14 9
-17 0 -3 6 -16 12 -30 11 -23 12 -21 6 15 -3 22 -5 59 -5 82 1 23 -4 45 -10
49 -9 5 -10 -1 -5 -20z"/>
<path d="M1777 3440 c-9 -25 -4 -49 10 -54 7 -3 13 -15 13 -26 0 -11 4 -20 8
-20 4 0 6 -27 5 -61 -2 -36 1 -58 7 -54 15 10 4 126 -18 180 -12 31 -22 44
-25 35z"/>
<path d="M1872 3428 c-14 -7 -21 -17 -17 -26 3 -8 0 -21 -6 -28 -9 -11 -8 -14
5 -14 11 0 16 9 16 31 0 16 4 28 9 25 5 -3 11 1 15 9 3 8 4 15 3 14 -1 0 -12
-5 -25 -11z"/>
<path d="M1022 3408 c-9 -9 -8 -16 6 -31 16 -19 16 -19 -8 -12 -24 7 -24 6 -7
-11 16 -18 18 -18 33 4 11 16 22 21 35 17 13 -5 17 -2 14 8 -4 9 -16 12 -37 9
-26 -4 -30 -2 -25 12 8 19 5 20 -11 4z"/>
<path d="M1970 3401 c-8 -16 -5 -23 20 -41 20 -14 27 -26 23 -37 -6 -14 -8
-14 -16 5 -6 12 -14 22 -19 22 -16 0 -8 -18 22 -50 19 -20 28 -25 24 -14 -6
15 -4 17 6 7 9 -8 19 -9 32 -2 22 12 15 30 -10 23 -13 -5 -14 -4 -3 4 11 8 7
19 -24 56 -20 25 -39 46 -41 46 -2 0 -8 -9 -14 -19z"/>
<path d="M587 3403 c-8 -14 -2 -56 9 -60 5 -2 20 7 33 21 18 20 20 24 7 29 -9
3 -18 2 -21 -3 -10 -16 -28 -11 -21 5 6 15 1 21 -7 8z"/>
<path d="M847 3382 c-21 -23 -22 -38 -2 -46 16 -6 16 14 0 26 -6 5 -6 8 1 8 7
0 14 7 18 15 7 20 3 19 -17 -3z"/>
<path d="M1154 3392 c3 -6 -3 -16 -14 -22 -19 -10 -19 -12 -4 -35 17 -26 7
-34 -15 -12 -10 10 -11 9 -6 -5 8 -20 35 -32 36 -15 1 7 2 21 3 32 0 11 6 19
11 18 10 -1 40 26 30 28 -3 1 -8 2 -12 3 -5 1 -14 5 -22 10 -9 6 -12 5 -7 -2z"/>
<path d="M639 3354 l-34 -36 42 28 c23 16 42 32 43 37 0 16 -18 5 -51 -29z"/>
<path d="M1453 3358 c-12 -14 -5 -118 7 -118 4 0 10 11 12 25 3 13 1 22 -3 19
-5 -3 -9 -1 -9 5 0 5 5 13 10 16 6 3 8 18 6 32 -6 33 -11 36 -23 21z"/>
<path d="M1900 3346 c0 -8 5 -18 10 -21 6 -3 10 -1 10 6 0 10 3 10 12 1 10
-10 10 -15 -2 -22 -8 -5 -10 -10 -4 -10 6 0 17 6 23 14 10 12 7 18 -18 31 -27
13 -31 13 -31 1z"/>
<path d="M1708 3315 c-3 -14 -1 -28 5 -32 6 -4 3 -12 -8 -20 -11 -7 -13 -13
-7 -13 7 0 12 -16 12 -42 1 -32 3 -39 10 -27 6 10 6 28 0 48 -5 19 -5 31 1 31
8 0 5 68 -4 77 -3 2 -7 -8 -9 -22z"/>
<path d="M674 3314 c8 -21 -14 -72 -32 -76 -10 -2 -9 -8 3 -23 15 -18 16 -18
11 -1 -4 13 -2 17 7 13 10 -4 13 2 9 20 -3 18 -1 24 7 19 10 -6 16 12 12 37 0
4 5 7 12 7 8 0 7 4 -3 10 -23 15 -33 12 -26 -6z"/>
<path d="M1050 3321 c0 -5 7 -11 15 -15 8 -3 15 -10 15 -16 0 -11 -40 8 -52
25 -5 7 -8 7 -8 0 1 -5 7 -19 15 -29 8 -10 12 -22 10 -26 -2 -4 7 -18 20 -30
l25 -24 20 22 c11 12 20 25 20 29 -1 4 -9 -2 -19 -14 -18 -22 -19 -22 -41 -3
-20 18 -20 19 -3 28 10 5 25 7 33 4 12 -4 13 -3 3 10 -7 8 -9 19 -5 23 4 5 1
5 -6 1 -7 -4 -15 -1 -18 8 -7 17 -24 22 -24 7z"/>
<path d="M1850 3322 c0 -5 3 -12 7 -16 9 -9 14 -33 16 -73 0 -17 5 -29 9 -27
4 3 8 -7 8 -21 0 -14 4 -24 10 -20 5 3 7 12 3 20 -3 8 0 15 6 15 6 0 11 4 11
10 0 5 -7 7 -15 4 -18 -7 -21 22 -2 30 8 3 6 10 -8 21 -11 9 -19 21 -17 26 1
6 -4 17 -13 25 -8 9 -15 11 -15 6z"/>
<path d="M438 3306 c-10 -7 -15 -16 -12 -19 4 -3 -9 -16 -29 -27 -40 -24 -57
-51 -26 -43 10 3 19 9 19 13 0 5 24 22 53 39 28 17 45 31 35 31 -9 0 -18 4
-20 9 -1 5 -11 4 -20 -3z"/>
<path d="M1328 3267 c-2 -12 -9 -21 -15 -20 -7 2 -10 -4 -6 -12 7 -20 33 -1
33 24 0 13 2 13 9 2 5 -7 11 -9 14 -4 3 5 -3 14 -13 21 -16 10 -19 8 -22 -11z"/>
<path d="M1617 3265 c-27 -24 -25 -31 7 -19 9 3 16 14 16 23 0 14 2 14 10 1 8
-13 10 -12 10 3 0 23 -10 21 -43 -8z"/>
<path d="M2065 3270 c-18 -20 -18 -21 3 -36 12 -8 22 -24 22 -35 0 -11 8 -23
18 -26 14 -6 13 -8 -8 -13 -17 -4 -26 -14 -28 -30 l-4 -25 24 22 c19 18 27 20
36 11 16 -16 15 -35 0 -41 -9 -4 -9 -8 -3 -14 6 -4 12 -17 13 -28 2 -11 9 -23
15 -27 7 -4 12 -13 13 -20 1 -23 37 -87 46 -82 4 3 8 1 8 -5 0 -18 -18 -21
-24 -5 -4 9 -9 14 -13 11 -3 -4 -1 -12 5 -19 16 -21 32 -87 21 -94 -5 -3 -9
-10 -9 -16 0 -7 6 -6 15 2 13 11 14 8 9 -18 -3 -16 -1 -38 6 -49 6 -10 10 -12
7 -3 -2 8 2 26 9 39 7 14 10 30 5 35 -4 6 -11 21 -14 34 -4 18 -3 21 8 12 7
-6 16 -22 20 -37 3 -14 8 -23 12 -20 3 3 -2 27 -10 54 -9 26 -18 69 -21 95 -3
26 -9 55 -14 65 -16 28 -61 67 -69 59 -4 -4 -1 -11 7 -16 8 -5 11 -12 7 -16
-4 -4 -14 1 -21 12 -9 12 -11 23 -5 28 15 16 40 16 46 0 3 -8 9 -14 14 -14 6
0 5 9 -1 20 -6 11 -18 20 -26 20 -10 0 -14 6 -11 15 4 8 2 17 -4 20 -5 4 -26
40 -47 81 -38 75 -38 75 -57 54z"/>
<path d="M417 3235 c-20 -19 -41 -35 -46 -35 -10 0 -34 -100 -26 -108 3 -3 0
-12 -7 -19 -9 -11 -9 -17 3 -25 11 -8 11 -9 -3 -5 -19 7 -63 -57 -51 -76 11
-19 12 -57 1 -57 -5 0 -7 -7 -4 -16 4 -10 -1 -26 -11 -37 -18 -19 -17 -20 4
-8 26 13 36 14 29 2 -4 -5 -1 -11 6 -13 7 -3 5 -7 -6 -11 -10 -4 -15 -3 -11 3
10 16 -11 12 -25 -5 -8 -9 -8 -15 -2 -15 6 0 18 -7 27 -16 15 -15 15 -18 -2
-37 -17 -19 -17 -20 0 -14 16 6 16 5 0 -21 -10 -15 11 2 46 38 38 40 64 60 67
53 9 -20 31 -15 37 7 3 13 10 18 21 14 9 -3 16 -1 16 5 0 14 -27 15 -35 1 -3
-5 -11 -10 -16 -10 -6 0 -7 6 -2 13 13 21 -51 -25 -76 -55 -21 -25 -50 -41
-37 -20 2 4 1 14 -4 22 -10 16 15 50 37 50 7 0 13 5 13 10 0 10 -14 14 -37 11
-16 -2 -17 15 -2 25 7 4 8 9 1 13 -12 7 -19 82 -8 99 4 7 16 12 27 12 10 0 19
4 19 10 0 13 60 66 71 63 5 -2 9 4 9 12 0 21 -7 19 -38 -10 -35 -32 -51 -32
-44 1 3 19 7 22 13 12 6 -9 9 -7 9 10 0 12 -5 22 -11 22 -6 0 -7 5 -2 13 4 6
8 18 10 26 2 19 23 39 23 22 0 -7 4 -10 10 -6 5 3 7 12 4 20 -9 23 25 31 40
10 12 -17 13 -15 12 13 -1 17 -4 33 -7 36 -3 3 -22 -10 -42 -29z"/>
<path d="M582 3246 c-12 -12 -19 -25 -16 -29 4 -4 13 1 21 11 10 11 12 12 8 2
-4 -8 1 -6 9 4 32 39 15 48 -22 12z"/>
<path d="M1203 3247 c7 -20 3 -21 -23 -7 -13 7 -21 7 -26 -2 -4 -7 -3 -8 4 -4
6 4 21 -7 33 -24 17 -22 26 -27 33 -19 8 8 8 13 0 16 -7 2 -10 12 -7 22 3 10
-1 22 -8 27 -9 5 -11 2 -6 -9z"/>
<path d="M2009 3236 c-1 -6 -1 -15 0 -20 1 -5 -4 -13 -11 -17 -17 -11 -5 -21
16 -13 9 3 13 10 10 15 -9 15 8 10 30 -8 21 -18 21 -18 4 3 -10 11 -18 27 -18
36 0 17 -29 21 -31 4z"/>
<path d="M1359 3228 c-1 -7 0 -23 1 -35 1 -15 -4 -23 -15 -23 -12 0 -15 6 -11
23 l6 22 -11 -22 c-9 -17 -9 -26 1 -38 11 -13 15 -12 31 9 20 25 26 76 9 76
-5 0 -10 -6 -11 -12z"/>
<path d="M1511 3228 c0 -9 -6 -20 -13 -24 -8 -5 -9 -1 -4 12 5 14 4 16 -4 8
-12 -12 -21 -64 -11 -64 14 1 42 52 38 68 -4 16 -5 16 -6 0z"/>
<path d="M1271 3207 c-5 -13 -16 -29 -25 -36 -21 -18 -20 -41 5 -71 11 -14 18
-19 14 -12 -3 6 -4 12 -1 12 4 0 13 -18 22 -41 10 -24 20 -37 26 -31 5 5 0 24
-13 47 -23 38 -28 100 -9 119 5 5 10 16 10 23 0 21 -20 15 -29 -10z"/>
<path d="M1630 3223 c0 -6 -9 -9 -19 -6 -24 6 -23 -16 1 -40 15 -15 16 -14 21
16 2 18 3 34 1 36 -2 2 -4 0 -4 -6z"/>
<path d="M1783 3214 c-3 -9 -1 -25 5 -35 15 -23 16 -42 2 -34 -6 3 -10 -4 -9
-17 0 -13 3 -17 6 -10 2 6 11 12 19 12 10 0 12 8 7 33 -3 17 -10 37 -14 43 -5
6 -6 14 -2 17 3 4 3 7 -1 7 -3 0 -9 -7 -13 -16z"/>
<path d="M495 3200 c4 -7 9 -51 11 -99 3 -96 8 -133 18 -149 3 -6 2 -13 -4
-17 -6 -4 -7 -11 -4 -17 11 -17 24 14 24 57 -1 22 -7 49 -15 59 -11 14 -12 22
-4 27 9 5 9 15 0 39 -12 35 1 66 22 53 6 -3 7 -1 3 6 -4 6 -11 9 -16 6 -5 -3
-10 5 -12 17 -2 12 -9 23 -17 26 -9 3 -11 0 -6 -8z"/>
<path d="M593 3198 c-15 -25 -13 -58 5 -76 16 -16 17 -23 8 -41 -7 -12 -15
-19 -19 -15 -3 3 -5 -12 -4 -35 1 -22 4 -41 8 -41 4 0 6 12 4 28 -2 18 5 36
22 54 25 26 25 28 9 52 -19 31 -20 40 -3 33 8 -3 14 1 14 8 0 7 -7 12 -16 11
-10 -1 -15 6 -13 17 3 20 -3 22 -15 5z"/>
<path d="M870 3195 c0 -20 17 -28 36 -17 17 9 13 14 -18 25 -12 4 -18 1 -18
-8z"/>
<path d="M1100 3185 c-9 -10 -9 -15 -1 -15 6 0 11 5 11 10 0 6 11 3 25 -7 17
-12 24 -25 21 -38 -5 -20 -5 -20 10 0 14 18 13 22 -13 42 -33 27 -37 28 -53 8z"/>
<path d="M1390 3161 c0 -37 16 -49 26 -19 4 13 2 24 -5 26 -6 2 -9 8 -5 13 3
5 0 9 -5 9 -6 0 -11 -13 -11 -29z"/>
<path d="M413 3159 c-18 -12 -30 -26 -26 -32 4 -6 13 -2 24 11 9 12 22 22 28
22 6 0 11 5 11 10 0 13 0 13 -37 -11z"/>
<path d="M1502 3150 c-1 -19 6 -44 15 -55 12 -15 14 -16 10 -3 -3 9 3 28 14
42 11 14 16 26 10 26 -5 0 -13 -4 -16 -10 -10 -17 -23 -11 -28 13 -3 14 -5 10
-5 -13z"/>
<path d="M1975 3114 c0 -30 3 -54 8 -54 4 0 7 22 7 49 0 28 -3 52 -7 54 -5 3
-8 -19 -8 -49z"/>
<path d="M1576 3134 c-4 -11 -2 -20 3 -22 6 -2 9 -8 5 -13 -3 -5 0 -9 5 -9 13
0 14 30 2 48 -6 11 -10 10 -15 -4z"/>
<path d="M671 3136 c12 -11 119 -76 119 -72 0 8 -100 76 -112 76 -6 0 -9 -2
-7 -4z"/>
<path d="M1349 3114 c-15 -25 -15 -30 5 -80 20 -51 37 -66 51 -44 7 12 -8 42
-21 40 -5 -1 -10 3 -12 9 -2 6 3 11 11 11 9 0 17 5 19 11 2 5 12 11 23 13 11
2 19 6 18 9 -2 4 -3 13 -3 20 0 8 -4 7 -10 -3 -5 -8 -10 -11 -10 -6 0 5 -8 0
-17 -10 -20 -22 -43 -29 -43 -14 0 6 4 10 8 10 5 0 9 14 10 30 1 37 -8 38 -29
4z"/>
<path d="M2025 3113 c2 -16 4 -30 5 -33 1 -3 3 -14 4 -24 0 -11 7 -21 15 -24
11 -4 12 1 7 19 -7 23 -12 49 -15 77 0 6 -5 12 -10 12 -5 0 -8 -12 -6 -27z"/>
<path d="M1475 3100 c-3 -5 -3 -15 0 -20 4 -6 1 -17 -5 -25 -19 -23 4 -18 25
5 16 18 16 20 2 20 -10 0 -14 5 -11 15 7 17 -1 20 -11 5z"/>
<path d="M1690 3087 c-14 -29 -7 -48 11 -30 6 6 9 21 7 34 l-4 24 -14 -28z"/>
<path d="M1620 3078 c-5 -13 -9 -17 -9 -10 -1 6 -6 12 -11 12 -7 0 -7 -6 0
-19 5 -11 10 -30 10 -42 0 -34 10 -17 15 26 3 20 8 41 11 46 3 5 3 9 -1 9 -3
0 -10 -10 -15 -22z"/>
<path d="M1556 3065 c-3 -9 -10 -14 -15 -11 -5 3 -12 -1 -15 -10 -9 -24 -7
-29 6 -16 21 21 32 13 12 -10 -10 -12 -13 -18 -6 -14 14 9 56 -79 49 -105 -2
-9 4 -21 14 -28 21 -13 22 -11 10 42 -5 21 -5 39 0 43 5 3 9 12 9 21 0 12 -5
11 -20 -7 l-20 -23 -2 24 c-1 13 -2 41 -4 62 -2 44 -9 55 -18 32z"/>
<path d="M1943 3020 c-1 -27 3 -48 7 -45 10 6 10 95 0 95 -4 0 -7 -22 -7 -50z"/>
<path d="M427 3053 c-4 -3 -7 -17 -7 -31 0 -21 2 -22 15 -12 8 7 15 21 15 31
0 19 -11 25 -23 12z"/>
<path d="M1427 3053 c-4 -3 -7 -21 -7 -40 0 -20 -5 -33 -12 -33 -8 0 -6 -5 4
-10 10 -6 14 -18 11 -30 -4 -16 0 -20 21 -20 32 0 33 7 4 32 -19 16 -20 22
-10 38 7 11 12 25 11 32 0 7 -5 4 -10 -7 -7 -16 -9 -14 -6 13 4 35 4 35 -6 25z"/>
<path d="M1820 3013 c-23 -22 -28 -31 -19 -43 9 -12 10 -12 7 -1 -4 16 25 51
42 51 6 0 10 5 10 10 0 15 -7 12 -40 -17z"/>
<path d="M1986 3013 c4 -16 11 -31 17 -34 5 -4 5 -9 -2 -13 -6 -4 -11 -15 -11
-24 0 -13 5 -12 21 8 11 14 18 19 14 13 -3 -7 -1 -13 4 -13 16 0 13 16 -4 34
-8 8 -12 23 -9 33 5 15 4 15 -5 3 -9 -13 -11 -13 -11 3 0 9 -5 17 -10 17 -6 0
-8 -11 -4 -27z"/>
<path d="M399 3013 c-1 -5 -2 -17 -3 -28 0 -11 -10 -21 -21 -23 -16 -4 -17 -2
-7 11 10 12 10 16 -3 20 -21 9 -42 -32 -24 -44 12 -8 12 -10 0 -18 -9 -6 -10
-11 -2 -15 14 -9 31 1 31 18 0 8 9 16 20 19 15 4 20 14 20 36 0 27 -8 44 -11
24z"/>
<path d="M1300 3001 c0 -6 4 -12 9 -15 5 -4 12 -29 16 -56 7 -52 19 -65 28
-30 3 10 -1 25 -9 31 -8 7 -12 14 -10 16 7 7 -15 63 -25 63 -5 0 -9 -4 -9 -9z"/>
<path d="M443 2981 c-1 -12 4 -21 13 -21 21 0 17 -26 -8 -50 -25 -23 -46 -27
-28 -5 7 9 8 15 2 15 -5 0 -12 -6 -15 -13 -12 -31 34 -55 55 -29 12 15 11 16
-4 3 -16 -11 -18 -11 -18 2 0 18 24 29 45 21 11 -5 13 -10 5 -19 -13 -16 1
-27 19 -16 18 12 18 15 -2 35 -11 11 -15 26 -12 37 4 11 2 18 -3 17 -5 -2 -18
8 -28 20 -19 23 -20 23 -21 3z"/>
<path d="M1530 2940 c0 -27 3 -50 8 -50 4 0 7 22 7 50 0 27 -3 50 -7 50 -5 0
-8 -22 -8 -50z"/>
<path d="M2083 2946 c3 -47 17 -58 17 -13 0 20 -4 38 -9 42 -6 3 -9 -9 -8 -29z"/>
<path d="M1381 2963 c-1 -7 12 -37 28 -67 22 -39 27 -56 18 -65 -8 -8 -8 -11
0 -11 16 0 24 29 13 49 -5 10 -7 21 -4 24 3 3 -3 14 -13 25 -10 10 -23 27 -30
38 -6 10 -12 13 -12 7z"/>
<path d="M1873 2944 c4 -6 -2 -22 -13 -34 -21 -24 -28 -56 -10 -45 6 4 8 11 5
16 -4 5 1 9 9 9 20 0 31 39 16 54 -9 7 -11 8 -7 0z"/>
<path d="M2124 2927 c17 -49 19 -70 6 -62 -9 5 -11 4 -6 -4 4 -6 12 -9 17 -5
12 7 2 64 -14 79 -7 7 -8 4 -3 -8z"/>
<path d="M2018 2917 c-12 -9 -14 -17 -7 -30 8 -14 5 -19 -12 -25 -12 -5 -18
-11 -13 -14 15 -10 49 25 52 55 4 31 3 31 -20 14z"/>
<path d="M1942 2863 c-7 -11 -6 -21 4 -30 7 -8 11 -20 8 -28 -4 -8 -1 -15 5
-15 15 0 14 47 -1 54 -10 5 -10 7 0 12 6 3 12 10 12 15 0 15 -18 10 -28 -8z"/>
<path d="M515 2850 c-4 -6 -9 -8 -13 -6 -4 2 -8 -12 -10 -31 -1 -19 2 -32 6
-29 12 7 11 -26 -1 -41 -6 -9 -6 -13 1 -13 6 0 9 -7 6 -15 -4 -8 -1 -15 5 -15
13 0 13 -3 16 88 2 73 1 80 -10 62z"/>
<path d="M2026 2819 c-18 -35 -12 -56 10 -38 11 9 14 9 14 -1 0 -8 3 -11 6 -8
3 4 1 15 -5 26 -7 13 -7 22 0 29 7 7 7 13 1 17 -6 3 -17 -8 -26 -25z"/>
<path d="M1716 2819 c4 -7 0 -9 -14 -5 -11 4 -23 3 -26 -2 -3 -6 4 -12 17 -16
12 -3 24 -1 25 4 2 6 13 10 25 11 21 0 21 1 2 9 -28 12 -37 12 -29 -1z"/>
<path d="M1480 2799 c0 -4 -3 -16 -6 -26 -5 -15 -4 -15 5 -3 9 13 11 13 11 0
0 -13 2 -13 9 -1 5 8 18 12 30 8 12 -3 19 -1 16 3 -3 5 0 10 7 12 14 5 68 -23
68 -34 0 -5 7 -8 16 -8 9 0 12 -5 8 -12 -4 -7 -3 -8 5 -4 6 4 9 12 6 17 -10
15 5 10 22 -7 10 -10 24 -13 37 -9 12 4 32 9 46 11 22 4 23 3 5 -5 -17 -8 -14
-10 15 -10 20 -1 41 -6 48 -13 6 -6 14 -9 18 -6 3 4 -8 14 -25 22 -17 9 -30
22 -28 29 1 7 -12 13 -35 15 -29 2 -38 0 -38 -12 0 -19 -10 -20 -44 -5 -14 7
-23 16 -20 20 3 5 -1 9 -8 9 -10 0 -9 3 2 11 12 8 11 9 -5 6 -11 -2 -19 -9
-17 -15 3 -17 -15 -15 -22 3 -4 11 -20 14 -66 13 -33 -1 -60 -5 -60 -9z"/>
<path d="M2166 2792 c-3 -9 -9 -24 -12 -32 -3 -8 0 -7 6 3 11 18 12 18 26 0 7
-10 13 -29 13 -43 -1 -25 -1 -24 -15 5 l-15 30 5 -32 c4 -25 2 -33 -10 -33 -8
0 -12 -5 -9 -10 4 -6 2 -16 -3 -23 -5 -7 -13 -34 -17 -61 -3 -27 -9 -55 -12
-62 -3 -9 2 -14 12 -14 11 0 15 5 11 16 -3 8 -2 12 4 9 6 -3 11 6 12 22 2 39
1 45 -7 68 -3 11 1 7 10 -8 21 -37 26 -31 16 16 -5 20 -5 37 -1 37 5 0 11 -13
15 -30 9 -43 22 -45 23 -4 1 22 -2 32 -9 28 -8 -4 -8 -1 0 14 8 15 7 31 -5 66
-18 52 -29 64 -38 38z"/>
<path d="M1836 2783 c-12 -12 -6 -25 9 -19 10 3 15 -1 15 -12 0 -9 5 -24 10
-32 8 -11 9 -7 4 14 -5 21 -4 27 5 22 22 -14 11 2 -13 17 -13 9 -26 13 -30 10z"/>
<path d="M674 2764 c-35 -17 -84 -64 -67 -64 6 0 13 7 17 15 3 8 17 15 31 15
15 0 24 5 23 13 -2 7 7 11 23 10 16 -1 26 4 26 13 0 18 -14 17 -53 -2z"/>
<path d="M447 2730 c-19 -22 -31 -40 -26 -40 13 0 59 46 59 59 0 5 6 12 13 14
7 3 7 6 1 6 -6 1 -27 -17 -47 -39z"/>
<path d="M776 2729 c-60 -14 -57 -21 6 -17 31 1 54 7 51 11 -3 5 6 2 20 -8 16
-10 27 -12 32 -6 13 23 67 -1 58 -25 -4 -12 -8 -13 -13 -3 -11 17 -199 23
-320 10 -166 -17 -184 -20 -199 -36 -14 -13 -12 -15 15 -15 35 0 45 -6 38 -25
-4 -9 -14 -11 -32 -6 -15 5 -34 6 -42 4 -10 -3 -11 -2 -3 4 6 4 9 20 6 35 -4
23 -8 26 -24 17 -13 -7 -19 -6 -19 1 0 6 -4 8 -10 5 -6 -3 -10 -15 -10 -27 0
-17 2 -18 15 -8 13 11 15 6 15 -32 0 -42 1 -45 24 -41 18 4 23 10 19 22 -5 12
-3 13 7 4 7 -6 19 -9 28 -6 10 4 13 1 10 -8 -3 -8 -12 -13 -20 -11 -14 2 -23
-14 -34 -58 -1 -8 -13 -23 -25 -32 -11 -10 -17 -18 -12 -18 5 0 15 6 22 13 14
12 14 11 -5 -55 -5 -17 -3 -20 10 -15 10 4 19 1 22 -8 4 -8 11 -15 17 -15 5 0
3 8 -6 18 -21 23 -22 56 -1 73 11 9 14 23 10 49 -4 27 -3 31 5 17 6 -10 15
-14 22 -10 9 5 9 3 0 -8 -26 -33 6 -227 51 -304 40 -67 104 -133 144 -147 24
-8 90 -13 189 -13 151 0 152 0 133 -20 -10 -11 -20 -29 -22 -40 -2 -12 -13
-21 -26 -23 -12 -2 -26 -12 -32 -22 -11 -20 2 -22 29 -6 8 5 31 11 52 13 34 4
40 2 48 -20 9 -22 17 -25 73 -29 49 -3 69 -9 86 -26 12 -12 27 -22 32 -22 11
0 14 20 3 20 -33 1 -38 50 -6 50 8 0 12 -4 8 -9 -10 -17 12 -21 25 -6 16 19
30 19 30 0 0 -8 5 -15 10 -15 6 0 10 6 10 14 0 7 8 16 18 20 52 19 71 23 76
18 9 -8 66 -8 66 0 0 18 -75 20 -136 3 -86 -23 -100 -22 -171 10 -50 22 -65
25 -82 16 -12 -7 -21 -16 -21 -21 0 -14 18 -21 25 -10 8 12 55 13 55 1 0 -11
-25 -21 -55 -21 -15 0 -26 7 -30 20 -3 11 -15 20 -26 20 -15 0 -19 7 -19 33 0
35 21 65 62 92 15 9 25 21 22 26 -3 5 2 6 10 3 11 -4 18 6 26 38 6 23 32 80
56 126 25 46 42 87 39 92 -8 13 37 23 79 18 30 -3 34 -1 34 20 0 26 -3 28 -67
36 -42 6 -43 6 -39 -18 4 -18 -2 -32 -19 -48 l-25 -23 8 65 c3 36 9 68 11 73
2 4 31 7 63 7 69 0 80 -11 79 -81 -1 -63 36 -193 72 -258 18 -31 49 -72 70
-92 33 -30 39 -42 39 -76 0 -45 -13 -61 -66 -79 -24 -8 -34 -8 -37 0 -3 6 -8
7 -13 2 -5 -5 -4 -11 4 -13 6 -3 12 -11 12 -18 0 -16 27 -28 35 -15 3 5 -3 14
-12 20 -15 10 -14 11 10 7 15 -2 27 0 27 4 0 5 9 9 20 9 12 0 20 -7 20 -16 0
-12 3 -14 13 -6 16 14 14 127 -3 148 -12 13 -8 14 31 7 56 -10 196 -10 272 1
51 7 64 13 99 49 21 22 50 60 64 82 22 39 63 201 64 253 0 12 4 22 9 22 5 0 7
9 4 20 -3 11 -9 20 -13 20 -18 0 -29 -32 -43 -128 -16 -111 -44 -181 -100
-244 -29 -34 -39 -39 -102 -48 -91 -13 -200 -13 -248 1 -21 5 -54 24 -74 42
-40 35 -90 130 -99 190 -4 20 -9 37 -13 37 -8 0 -6 83 4 141 16 97 57 128 196
150 73 11 290 7 336 -7 26 -7 43 20 25 38 -9 9 -17 6 -33 -8 -18 -15 -21 -16
-16 -3 4 13 -3 18 -31 23 -57 9 -230 7 -299 -4 -63 -10 -185 -59 -197 -79 -5
-7 -43 -11 -99 -11 -85 0 -93 2 -119 27 -22 21 -31 24 -40 15 -7 -7 -17 -12
-23 -12 -5 0 -1 6 9 12 18 10 17 12 -15 29 -19 10 -44 18 -56 19 -12 0 -36 13
-53 28 -26 24 -39 29 -88 29 -31 0 -75 -3 -96 -8z m187 -79 c103 -20 166 -76
168 -149 0 -20 2 -46 3 -58 2 -13 -1 -23 -5 -23 -12 0 -29 -61 -28 -99 1 -30
3 -27 10 18 11 66 19 77 19 28 0 -45 -39 -155 -74 -207 -29 -44 -80 -74 -141
-84 -55 -9 -253 11 -279 28 -12 7 -41 39 -65 70 -52 67 -77 148 -87 277 -4 54
-11 89 -18 89 -8 0 -8 2 0 8 6 4 17 20 25 36 30 64 122 88 307 80 62 -3 136
-9 165 -14z m417 -66 c0 -14 -54 -56 -58 -45 -2 6 7 20 20 31 24 20 38 25 38
14z m-163 -21 c5 3 15 1 23 -4 13 -8 13 -10 0 -19 -19 -13 -40 -13 -40 0 0 5
-7 7 -15 4 -8 -4 -15 -12 -15 -20 0 -19 -16 -18 -24 1 -3 8 0 15 7 15 7 0 19
9 27 20 9 13 16 16 21 8 4 -6 11 -8 16 -5z"/>
<path d="M565 2589 c7 -11 -22 -49 -38 -49 -5 0 -7 7 -3 15 3 9 0 15 -9 15
-22 0 -18 -38 5 -45 11 -3 24 -3 30 0 14 9 13 -1 -5 -35 -9 -17 -13 -30 -11
-30 3 0 1 -11 -4 -25 -7 -17 -6 -25 1 -25 6 0 9 -9 6 -20 -3 -10 1 -27 9 -37
12 -16 13 -15 14 14 0 17 3 39 7 49 5 14 3 16 -11 11 -14 -6 -17 -3 -12 9 3 8
6 18 6 20 0 3 5 2 10 -1 13 -8 18 7 23 77 3 42 0 59 -10 62 -8 4 -11 1 -8 -5z"/>
<path d="M764 2535 c-12 -8 -24 -11 -28 -8 -3 3 -6 1 -6 -6 0 -9 10 -11 33 -6
54 11 67 16 67 26 0 14 -43 11 -66 -6z"/>
<path d="M765 2483 c-11 -3 -24 -8 -30 -12 -5 -4 -29 -13 -52 -21 -47 -14 -54
-25 -23 -35 23 -7 60 2 60 16 0 5 5 9 11 9 5 0 7 -4 4 -10 -3 -5 1 -10 9 -10
16 0 22 25 9 33 -5 2 -3 2 4 1 7 -2 15 1 18 6 11 17 30 11 40 -12 18 -40 82
-36 101 6 9 20 9 26 -3 30 -17 7 -119 6 -148 -1z"/>
<path d="M950 2471 c0 -5 -3 -17 -7 -27 -5 -13 -3 -16 10 -11 10 4 29 2 44 -4
24 -9 25 -8 12 8 -27 37 -59 55 -59 34z"/>
<path d="M589 2410 c-7 -26 -6 -60 1 -60 14 0 23 41 11 53 -6 6 -12 9 -12 7z"/>
<path d="M864 2363 c-16 -12 -16 -13 8 -13 14 0 31 6 38 14 9 12 8 15 -8 13
-11 0 -28 -7 -38 -14z"/>
<path d="M640 2350 c-32 -34 -46 -54 -31 -46 10 7 12 4 7 -12 -6 -17 -3 -19
14 -15 11 3 20 14 20 24 0 11 4 19 9 19 6 0 8 10 6 21 -6 28 -7 29 -25 9z"/>
<path d="M1327 2727 c-5 -14 17 -50 25 -42 8 8 -3 55 -12 55 -4 0 -10 -6 -13
-13z"/>
<path d="M2039 2725 c-1 -8 -2 -21 -3 -27 -1 -7 5 -12 12 -10 6 1 12 -3 12 -9
0 -5 5 -7 12 -3 8 5 6 11 -7 20 -15 11 -16 16 -5 29 10 12 10 15 -4 15 -9 0
-17 -7 -17 -15z"/>
<path d="M322 2718 c-17 -17 -15 -38 4 -38 8 0 12 5 9 10 -3 6 -2 10 4 10 5 0
11 -5 13 -12 3 -9 6 -9 12 0 4 7 2 12 -3 12 -6 0 -11 7 -11 15 0 18 -12 19
-28 3z"/>
<path d="M1030 2718 c0 -6 3 -8 6 -5 9 8 46 -12 40 -22 -3 -4 8 -15 25 -25 25
-15 29 -15 29 -2 0 9 -5 16 -11 16 -7 0 -22 11 -35 25 -24 26 -54 33 -54 13z"/>
<path d="M2090 2682 c0 -24 -2 -27 -22 -49 l-21 -23 21 0 c12 0 22 -4 22 -10
0 -5 -11 -10 -25 -10 -26 0 -48 -31 -27 -38 6 -2 8 -11 5 -20 -4 -12 0 -11 16
6 22 22 37 30 27 13 -4 -5 3 -7 15 -4 13 4 16 8 10 13 -7 3 -9 13 -6 22 3 8 1
26 -4 40 -7 18 -6 29 2 37 8 8 8 14 -1 23 -9 9 -12 9 -12 0z"/>
<path d="M1953 2663 c4 -3 2 -12 -4 -19 -8 -10 -4 -20 19 -39 17 -14 37 -45
45 -68 13 -36 16 -38 16 -15 1 15 -4 30 -9 33 -6 4 -9 19 -8 33 2 21 -1 26
-14 24 -27 -4 -22 13 8 28 23 13 24 15 7 21 -23 10 -68 11 -60 2z"/>
<path d="M1964 2544 c-1 -31 2 -44 12 -44 18 0 18 49 1 71 -10 14 -13 10 -13
-27z"/>
<path d="M1702 2516 c-12 -6 -20 -17 -17 -24 3 -9 -1 -11 -14 -7 -15 4 -21 0
-24 -17 l-4 -23 -2 23 c0 13 6 26 17 30 11 4 1 9 -33 13 -53 6 -76 0 -112 -34
-37 -33 -30 -46 16 -34 22 6 38 14 36 17 -2 3 0 12 6 20 7 13 9 12 9 -2 0 -22
30 -38 69 -38 24 0 34 7 46 29 18 36 42 54 32 25 -6 -17 -6 -17 5 -3 17 21 37
13 31 -11 -7 -26 8 -25 30 0 9 11 12 20 6 20 -5 0 -8 4 -5 9 3 4 -5 6 -18 4
-13 -3 -27 0 -30 6 -8 13 -13 12 -44 -3z"/>
<path d="M2077 2524 c-9 -9 4 -34 18 -34 7 0 15 -3 17 -7 2 -5 16 -19 32 -33
l29 -25 -18 34 c-16 32 -52 70 -66 71 -3 0 -8 -3 -12 -6z"/>
<path d="M1833 2473 c-4 -10 -11 -21 -17 -25 -6 -4 -7 -11 -2 -15 8 -8 46 32
46 48 0 16 -20 9 -27 -8z"/>
<path d="M1972 2438 c14 -84 17 -87 15 -19 -1 37 -7 66 -13 68 -8 3 -9 -11 -2
-49z"/>
<path d="M2104 2441 c9 -13 -3 -39 -20 -45 -9 -3 -12 -1 -9 4 3 5 1 18 -4 27
-9 15 -10 13 -11 -14 0 -25 4 -33 18 -33 10 0 24 6 32 13 9 8 8 3 -3 -14 -10
-17 -12 -30 -6 -38 6 -8 5 -8 -3 -1 -20 17 -36 -8 -31 -48 2 -20 -2 -69 -10
-108 -8 -42 -10 -80 -5 -93 4 -13 4 -20 -1 -17 -5 4 -14 -8 -20 -25 -9 -25 -8
-30 3 -26 10 4 12 0 9 -13 -3 -11 -10 -18 -16 -17 -6 1 -13 -8 -15 -21 -2 -12
-7 -20 -11 -18 -4 3 -16 -28 -26 -69 -10 -41 -22 -72 -27 -69 -4 3 -8 -4 -8
-15 0 -30 -11 -52 -23 -44 -5 3 -7 1 -3 -5 3 -5 3 -12 -1 -15 -5 -2 -2 -2 5
-1 16 4 15 0 -9 -47 -11 -23 -18 -43 -15 -46 3 -3 -3 -18 -14 -33 -11 -16 -20
-33 -20 -39 0 -6 -5 -11 -11 -11 -6 0 -8 -7 -5 -15 3 -9 -1 -18 -9 -21 -11 -5
-12 -11 -5 -25 9 -15 8 -17 -6 -12 -13 5 -15 3 -9 -7 5 -8 9 -30 10 -49 2 -39
19 -71 77 -142 21 -25 38 -53 38 -63 0 -10 5 -14 11 -10 8 4 9 -1 4 -15 -4
-12 -2 -27 3 -34 13 -17 11 -47 -4 -47 -8 0 -12 -17 -12 -49 -1 -40 -8 -59
-35 -98 -18 -26 -39 -48 -45 -48 -7 0 -13 -4 -14 -10 -3 -15 -60 -65 -68 -60
-4 3 -15 -4 -25 -15 -10 -11 -23 -20 -29 -20 -8 0 -8 2 0 8 6 4 17 18 24 32 8
15 -3 8 -28 -20 -34 -36 -43 -42 -51 -30 -5 8 -7 18 -4 24 3 5 1 6 -5 2 -7 -4
-12 -14 -12 -22 0 -8 -4 -13 -9 -10 -5 3 -14 -1 -21 -9 -11 -14 -14 -14 -24 0
-10 14 -15 13 -48 -4 -39 -19 -98 -32 -98 -21 0 3 -9 6 -19 6 -11 0 -17 -4
-15 -8 3 -4 -2 -8 -10 -8 -9 0 -16 5 -16 11 0 7 -11 9 -30 6 -19 -4 -30 -2
-30 4 0 7 -6 6 -17 -2 -14 -12 -12 -15 23 -21 72 -13 198 -8 289 11 153 31
257 98 319 203 71 121 67 227 -12 310 -22 24 -32 42 -28 53 4 12 -3 20 -26 29
-31 13 -32 15 -29 73 2 62 4 72 17 112 7 23 8 24 15 5 7 -16 8 -15 8 7 1 27
16 71 65 183 9 21 15 41 12 43 -2 3 2 19 9 36 7 18 14 35 14 39 7 43 15 68 22
68 20 0 57 79 67 145 7 39 19 113 28 165 9 52 18 114 20 138 2 23 5 46 8 51 3
5 -1 12 -10 15 -22 8 -26 8 -20 -3z"/>
<path d="M1384 2395 c3 -16 8 -48 12 -70 12 -70 26 -76 19 -7 -3 34 -2 62 3
62 4 0 17 7 28 15 18 14 17 14 -15 8 -23 -4 -36 -2 -43 8 -6 10 -8 5 -4 -16z"/>
<path d="M422 2274 c3 -5 11 -29 18 -53 6 -23 14 -41 16 -38 8 8 -15 85 -28
93 -6 4 -9 3 -6 -2z"/>
<path d="M1370 2126 c0 -25 4 -46 9 -46 12 0 12 78 0 85 -5 4 -9 -14 -9 -39z"/>
<path d="M469 2153 c-7 -39 -3 -60 8 -56 16 6 17 -9 2 -24 -7 -7 -3 -9 15 -6
l25 5 -24 26 c-17 18 -21 29 -14 38 7 8 7 14 -1 19 -5 3 -11 3 -11 -2z"/>
<path d="M506 2051 c-4 -6 0 -19 10 -28 9 -10 12 -19 6 -21 -10 -3 26 -104 40
-110 3 -2 4 -14 2 -28 -2 -13 0 -24 5 -24 6 0 8 -7 5 -15 -4 -8 -2 -15 4 -15
5 0 9 20 8 44 0 24 -4 42 -8 39 -5 -2 -8 -3 -8 -1 0 2 -8 27 -19 55 -14 40
-16 50 -5 46 8 -3 12 -9 9 -13 -3 -5 -1 -11 4 -14 13 -8 7 24 -6 32 -5 4 -17
20 -25 36 -10 18 -18 25 -22 17z"/>
<path d="M658 2011 c12 -11 22 -24 22 -30 0 -6 9 -11 20 -11 11 0 20 -5 20
-11 0 -5 5 -7 10 -4 17 11 11 25 -11 25 -11 0 -18 4 -15 9 3 5 -5 12 -19 15
-14 4 -25 11 -25 16 0 6 -6 10 -12 10 -7 -1 -3 -9 10 -19z"/>
<path d="M783 1996 c-31 -15 -29 -31 4 -34 26 -2 63 22 63 41 0 6 -10 2 -22
-9 -19 -17 -21 -17 -15 -1 7 19 2 20 -30 3z"/>
<path d="M1235 1863 c-16 -15 -16 -17 0 -26 20 -11 152 6 168 22 6 6 3 8 -9 6
-11 -2 -20 -4 -21 -5 -9 -5 -72 -2 -82 4 -6 4 -19 2 -28 -6 -15 -11 -16 -11
-10 5 8 21 3 22 -18 0z"/>
<path d="M1594 1805 c-4 -8 -13 -15 -22 -15 -12 0 -11 -4 6 -20 12 -12 22 -25
22 -31 0 -5 6 -4 14 3 14 13 11 32 -4 23 -15 -9 -21 14 -10 35 6 11 8 20 5 20
-3 0 -8 -7 -11 -15z"/>
<path d="M1185 1799 c-19 -7 -19 -8 -1 -8 11 -1 28 -8 38 -18 16 -15 18 -15
18 0 0 22 -30 36 -55 26z"/>
<path d="M592 1763 c6 -21 13 -42 16 -48 4 -5 7 -14 7 -20 1 -26 17 -75 25
-75 4 0 7 -6 7 -12 -2 -15 32 -85 51 -108 7 -8 23 -28 35 -44 20 -25 23 -26
23 -8 0 11 -4 20 -9 19 -15 -3 -67 91 -60 108 3 10 0 15 -8 13 -9 -2 -15 8
-17 25 -2 15 -8 27 -13 27 -5 0 -9 7 -9 16 0 14 3 14 15 4 24 -20 17 -2 -9 27
-14 15 -23 30 -20 35 3 4 0 8 -6 8 -6 0 -10 8 -9 18 3 36 -1 52 -15 52 -12 0
-12 -7 -4 -37z"/>
<path d="M947 1786 c-3 -8 0 -17 8 -20 9 -3 12 0 8 10 -3 7 0 14 6 14 11 0 15
-13 12 -39 -2 -7 2 -10 8 -7 6 4 10 18 9 31 -2 18 -8 25 -24 25 -12 0 -24 -6
-27 -14z"/>
<path d="M1130 1752 c0 -9 71 -34 78 -27 5 5 -53 35 -68 35 -5 0 -10 -4 -10
-8z"/>
<path d="M895 1720 c-12 -13 -14 -20 -5 -20 10 0 10 -3 0 -15 -11 -13 -10 -14
4 -9 9 3 16 9 17 13 4 29 5 51 4 51 -1 0 -10 -9 -20 -20z"/>
<path d="M1576 1655 c-8 -8 -25 -15 -37 -15 -12 0 -28 -8 -35 -17 -23 -31 -15
-38 12 -12 l27 24 -18 -30 -19 -30 30 28 c17 15 39 27 51 27 11 0 24 7 27 16
5 13 9 14 21 4 12 -10 15 -9 15 4 0 21 -53 22 -74 1z"/>
<path d="M885 1641 c-9 -16 14 -23 78 -23 55 1 108 -5 202 -23 69 -13 149 -14
163 -2 11 9 16 9 19 1 4 -13 34 -9 71 9 43 20 24 30 -45 22 -38 -4 -75 -7 -83
-6 -8 0 -42 1 -75 1 -33 0 -94 4 -135 10 -139 17 -189 20 -195 11z"/>
<path d="M1020 1436 c0 -9 7 -12 20 -9 11 3 20 1 20 -5 0 -5 18 -17 39 -25 22
-9 42 -21 46 -27 4 -6 19 -1 39 15 26 20 47 26 104 29 41 2 72 0 72 -6 0 -5 5
-6 10 -3 6 4 8 10 5 15 -3 4 1 11 7 14 7 2 -45 4 -117 3 -71 -1 -156 1 -187 6
-47 6 -58 4 -58 -7z"/>
<path d="M838 1396 c-10 -7 -18 -16 -18 -20 0 -3 -9 -15 -19 -25 -33 -33 -46
-95 -34 -154 19 -89 72 -187 134 -247 79 -77 289 -179 289 -141 0 7 -8 11 -17
10 -24 -4 -63 10 -63 21 0 5 -7 7 -15 4 -8 -4 -15 -2 -15 4 0 6 -13 15 -30 21
-16 5 -30 15 -30 20 0 6 -7 8 -15 5 -10 -4 -15 0 -15 11 0 9 -4 13 -10 10 -5
-3 -21 5 -35 19 -14 14 -30 29 -37 33 -7 4 -20 22 -29 38 -24 46 -43 77 -59
97 -8 10 -15 22 -16 26 0 4 -6 20 -12 35 -18 43 -14 102 9 147 20 38 39 53 39
30 0 -5 -4 -10 -10 -10 -5 0 -10 -5 -10 -11 0 -8 5 -8 15 1 9 8 13 21 9 36 -4
14 -1 31 6 39 15 18 11 19 -12 1z"/>
<path d="M512 1353 c49 -2 127 -2 176 0 48 1 8 3 -88 3 -96 0 -136 -2 -88 -3z"/>
<path d="M1067 1353 c-2 -5 -3 -16 -2 -25 2 -10 -2 -18 -8 -18 -5 0 -8 -3 -5
-6 4 -3 16 0 29 6 21 12 21 13 4 22 -14 8 -15 12 -4 19 9 6 10 9 2 9 -6 0 -14
-3 -16 -7z"/>
<path d="M892 1334 c-12 -8 -20 -20 -17 -25 4 -5 -1 -9 -9 -9 -9 0 -16 -3 -16
-8 0 -15 42 -43 56 -38 8 3 12 2 9 -3 -3 -5 -1 -12 5 -16 13 -8 13 11 0 35 -7
12 -17 16 -31 13 -19 -5 -20 -4 -8 16 8 11 17 21 20 21 4 0 9 7 13 15 7 19 6
19 -22 -1z"/>
<path d="M1267 1344 c-14 -14 -7 -25 13 -22 12 2 21 8 21 13 0 12 -24 18 -34
9z"/>
<path d="M1434 1326 c1 -17 7 -24 19 -23 9 1 17 5 17 9 0 18 -2 23 -11 21 -5
-2 -9 2 -9 7 0 6 -4 10 -9 10 -5 0 -8 -11 -7 -24z"/>
<path d="M1920 1334 c0 -10 42 -44 53 -44 6 0 0 11 -13 25 -22 24 -40 32 -40
19z"/>
<path d="M2020 1304 c34 -7 160 -9 160 -2 0 4 -39 7 -87 7 -49 -1 -81 -3 -73
-5z"/>
<path d="M2194 1299 c-3 -5 36 -9 87 -9 51 0 90 2 88 4 -8 9 -170 13 -175 5z"/>
<path d="M2970 1295 c-7 -8 -21 -15 -32 -15 -10 0 -17 -4 -14 -9 7 -11 59 -1
68 13 18 27 -1 36 -22 11z"/>
<path d="M2463 1288 c-2 -5 58 -7 134 -6 139 2 124 5 -40 10 -49 2 -91 0 -94
-4z"/>
<path d="M1069 1273 c-8 -10 -26 -26 -39 -36 -24 -17 -24 -17 8 0 36 19 71 53
56 53 -5 0 -16 -8 -25 -17z"/>
<path d="M1994 1273 c2 -10 11 -18 22 -18 11 0 27 -16 41 -40 21 -38 22 -41 5
-53 -16 -13 -16 -13 3 -10 35 5 45 21 27 41 -8 9 -20 27 -26 39 -6 12 -25 30
-43 40 -30 18 -31 18 -29 1z"/>
<path d="M660 1263 c-20 -8 -95 -83 -83 -83 5 0 31 20 59 45 49 45 52 48 24
38z"/>
<path d="M939 1223 c-7 -10 -9 -15 -5 -11 5 4 24 -2 43 -13 38 -24 44 -13 10
19 -28 27 -31 27 -48 5z"/>
<path d="M1478 1223 c-19 -26 -56 -45 -63 -33 -3 6 -11 10 -16 10 -6 0 -8 -4
-4 -9 3 -5 1 -12 -5 -16 -5 -3 -10 -1 -10 6 0 8 -3 9 -13 0 -14 -11 -27 -5
-27 11 0 5 5 6 12 2 7 -5 8 -3 3 6 -6 10 -11 9 -21 -5 -13 -18 -30 -22 -88
-24 -22 -1 -27 -5 -22 -17 4 -9 1 -24 -6 -33 -12 -14 -11 -15 5 -2 10 8 16 20
13 27 -4 10 11 12 65 10 46 -2 76 2 87 10 20 16 36 18 27 4 -3 -6 1 -7 9 -4 9
3 16 10 16 15 0 5 4 9 10 9 5 0 7 -8 4 -17 -3 -10 1 -8 8 5 8 12 17 20 20 17
3 -3 8 6 10 20 6 30 4 31 -14 8z"/>
<path d="M2110 1200 c14 -11 32 -26 40 -33 20 -19 60 -28 60 -15 0 6 8 4 18
-5 10 -10 32 -17 48 -16 26 0 23 2 -21 21 -27 11 -61 21 -75 22 -14 0 -24 5
-22 10 2 5 -11 15 -28 23 -44 18 -50 16 -20 -7z"/>
<path d="M2934 1201 c-31 -19 -52 -41 -39 -41 14 0 65 34 69 47 7 17 7 17 -30
-6z"/>
<path d="M1069 1189 c-12 -8 -12 -10 1 -19 8 -6 23 -8 33 -6 10 2 17 -2 17 -9
0 -12 4 -12 26 0 15 7 35 12 45 10 12 -2 17 0 13 6 -3 6 -15 9 -25 6 -11 -3
-23 2 -29 11 -8 14 -9 14 -10 2 0 -13 -1 -13 -10 0 -7 11 -10 11 -10 2 0 -9
-5 -10 -18 -3 -11 6 -24 6 -33 0z"/>
<path d="M472 1158 c7 -20 -42 -40 -97 -39 -34 0 -45 -3 -35 -9 39 -25 139 0
160 39 9 18 8 21 -10 21 -13 0 -20 -5 -18 -12z"/>
<path d="M293 1139 c-7 -7 -40 -15 -75 -19 l-63 -7 65 -2 c55 -1 67 2 78 19
14 22 12 26 -5 9z"/>
<path d="M2933 1135 c-3 -9 -3 -19 1 -22 8 -9 37 18 30 28 -8 14 -24 11 -31
-6z"/>
<path d="M2215 1110 c3 -5 19 -10 35 -10 16 0 32 -4 35 -10 8 -13 25 -13 25 0
0 5 -11 12 -25 15 -14 3 -37 7 -51 10 -16 4 -23 2 -19 -5z"/>
<path d="M2427 1106 c-5 -14 24 -24 81 -29 12 -1 22 -5 22 -8 0 -4 8 -9 18
-11 12 -3 18 1 18 11 0 15 -16 20 -72 21 -12 0 -27 7 -34 15 -16 19 -26 19
-33 1z"/>
<path d="M300 1060 l-35 -31 42 23 c24 13 43 26 43 31 0 14 -16 7 -50 -23z"/>
<path d="M2605 1060 c-4 -6 -11 -8 -16 -5 -5 4 -9 4 -9 1 0 -3 21 -15 48 -27
33 -15 72 -22 132 -25 56 -2 76 0 60 5 -14 5 -50 10 -80 10 -65 1 -102 10 -94
22 3 5 -3 6 -12 2 -13 -5 -16 -3 -11 10 7 18 -8 24 -18 7z"/>
<path d="M2200 1005 c0 -4 12 -40 26 -79 14 -39 27 -78 29 -87 8 -37 40 -119
47 -119 5 0 1 17 -8 38 -9 20 -22 60 -29 87 -20 76 -65 186 -65 160z"/>
<path d="M1360 970 c-19 -17 -29 -30 -22 -30 6 0 26 13 44 30 43 38 24 38 -22
0z"/>
<path d="M2796 961 c-3 -5 8 -14 24 -21 24 -10 33 -10 45 0 13 10 13 15 3 21
-7 5 -16 3 -20 -4 -5 -9 -10 -9 -20 1 -14 14 -25 15 -32 3z"/>
<path d="M1984 951 c3 -5 -1 -11 -9 -15 -17 -6 -21 -36 -5 -36 6 0 10 4 10 9
0 5 7 16 15 24 13 13 13 16 -1 21 -8 3 -13 2 -10 -3z"/>
<path d="M2930 901 c-25 -7 -25 -8 -3 -15 20 -6 63 7 63 19 0 7 -30 4 -60 -4z"/>
<path d="M1940 883 c0 -14 -6 -23 -15 -23 -8 0 -15 -4 -15 -10 0 -5 8 -10 19
-10 21 0 33 31 20 51 -6 10 -9 8 -9 -8z"/>
<path d="M2016 799 c-15 -22 -25 -43 -22 -46 2 -3 17 14 32 36 15 23 25 44 22
46 -3 3 -17 -13 -32 -36z"/>
<path d="M1225 813 c4 -8 -1 -13 -12 -13 -15 -1 -15 -2 -3 -9 27 -16 80 -23
80 -12 0 6 -10 11 -21 11 -12 0 -28 8 -36 18 -8 9 -12 11 -8 5z"/>
<path d="M2653 670 c-18 -115 -25 -140 -34 -135 -4 3 -6 12 -2 20 3 8 0 15 -6
15 -12 0 -15 -23 -4 -33 3 -4 8 -21 10 -39 2 -18 8 -37 14 -43 8 -7 9 -3 4 15
-10 33 -10 31 4 65 15 35 34 157 29 188 -2 12 -9 -12 -15 -53z"/>
<path d="M1982 668 c-10 -13 -16 -41 -13 -68 1 -8 9 5 17 28 16 46 14 62 -4
40z"/>
<path d="M240 558 c-42 -53 -44 -62 -6 -33 20 15 36 36 36 46 0 24 0 24 -30
-13z"/>
</g>
</svg>
