<svg class="w-24 h-24" viewBox="0 0 24 24"  xmlns="http://www.w3.org/2000/svg" fill="#c77b36">
    <path d="M12 2C11 2 10 2.2 9.3 2.5C8.7 3.1 8 4 7.5 5.5C7.2 6.7 7 8.1 7 10C7 12.5 7.5 14.3 8.2 16C9.2 18.2 10.6 19 12 19C13.4 19 14.8 18.2 15.8 16C16.5 14.3 17 12.5 17 10C17 8.1 16.8 6.7 16.5 5.5C16 4 15.3 3.1 14.7 2.5C14 2.2 13 2 12 2ZM14 4C14.1 4.1 14.3 4.3 14.5 4.5C14.8 5 15.3 5.9 15.7 7C15.9 8 16 9 16 10C16 12.2 15.6 13.8 15 15.2C14.2 16.9 13.3 17.5 12 17.5C10.7 17.5 9.8 16.9 9 15.2C8.4 13.8 8 12.2 8 10C8 9 8.1 8 8.3 7C8.7 5.9 9.2 5 9.5 4.5C9.7 4.3 9.9 4.1 10 4C10.9 3.8 11.5 3.7 12 3.7C12.5 3.7 13.1 3.8 14 4Z" />
</svg>
